<svg id="visual" viewBox="0 0 900 450" width="900" height="450" xmlns="http://www.w3.org/2000/svg" xmlns:xlink="http://www.w3.org/1999/xlink" version="1.1"><rect x="0" y="0" width="900" height="450" fill="#ff0066"></rect><path d="M0 48L30 54.2C60 60.3 120 72.7 180 85.3C240 98 300 111 360 111.3C420 111.7 480 99.3 540 88.3C600 77.3 660 67.7 720 82.8C780 98 840 138 870 158L900 178L900 451L870 451C840 451 780 451 720 451C660 451 600 451 540 451C480 451 420 451 360 451C300 451 240 451 180 451C120 451 60 451 30 451L0 451Z" fill="#dd3f31"></path><path d="M0 143L30 140.5C60 138 120 133 180 143.8C240 154.7 300 181.3 360 184.3C420 187.3 480 166.7 540 154.3C600 142 660 138 720 128.3C780 118.7 840 103.3 870 95.7L900 88L900 451L870 451C840 451 780 451 720 451C660 451 600 451 540 451C480 451 420 451 360 451C300 451 240 451 180 451C120 451 60 451 30 451L0 451Z" fill="#d03049"></path><path d="M0 199L30 185.8C60 172.7 120 146.3 180 142.7C240 139 300 158 360 160.8C420 163.7 480 150.3 540 158.3C600 166.3 660 195.7 720 206.2C780 216.7 840 208.3 870 204.2L900 200L900 451L870 451C840 451 780 451 720 451C660 451 600 451 540 451C480 451 420 451 360 451C300 451 240 451 180 451C120 451 60 451 30 451L0 451Z" fill="#bc2b5a"></path><path d="M0 212L30 218.5C60 225 120 238 180 237.7C240 237.3 300 223.7 360 213.3C420 203 480 196 540 195.8C600 195.7 660 202.3 720 211.3C780 220.3 840 231.7 870 237.3L900 243L900 451L870 451C840 451 780 451 720 451C660 451 600 451 540 451C480 451 420 451 360 451C300 451 240 451 180 451C120 451 60 451 30 451L0 451Z" fill="#a22e66"></path><path d="M0 201L30 210.8C60 220.7 120 240.3 180 246.3C240 252.3 300 244.7 360 247C420 249.3 480 261.7 540 268.3C600 275 660 276 720 279C780 282 840 287 870 289.5L900 292L900 451L870 451C840 451 780 451 720 451C660 451 600 451 540 451C480 451 420 451 360 451C300 451 240 451 180 451C120 451 60 451 30 451L0 451Z" fill="#86336c"></path><path d="M0 284L30 275.7C60 267.3 120 250.7 180 253.3C240 256 300 278 360 286.7C420 295.3 480 290.7 540 293.7C600 296.7 660 307.3 720 301.8C780 296.3 840 274.7 870 263.8L900 253L900 451L870 451C840 451 780 451 720 451C660 451 600 451 540 451C480 451 420 451 360 451C300 451 240 451 180 451C120 451 60 451 30 451L0 451Z" fill="#68366b"></path><path d="M0 280L30 286.3C60 292.7 120 305.3 180 310.2C240 315 300 312 360 309.7C420 307.3 480 305.7 540 300.5C600 295.3 660 286.7 720 287.7C780 288.7 840 299.3 870 304.7L900 310L900 451L870 451C840 451 780 451 720 451C660 451 600 451 540 451C480 451 420 451 360 451C300 451 240 451 180 451C120 451 60 451 30 451L0 451Z" fill="#4d3663"></path><path d="M0 325L30 326.5C60 328 120 331 180 333C240 335 300 336 360 341.3C420 346.7 480 356.3 540 354.5C600 352.7 660 339.3 720 337C780 334.7 840 343.3 870 347.7L900 352L900 451L870 451C840 451 780 451 720 451C660 451 600 451 540 451C480 451 420 451 360 451C300 451 240 451 180 451C120 451 60 451 30 451L0 451Z" fill="#363455"></path><path d="M0 375L30 374.2C60 373.3 120 371.7 180 373.5C240 375.3 300 380.7 360 383.8C420 387 480 388 540 386.3C600 384.7 660 380.3 720 375.3C780 370.3 840 364.7 870 361.8L900 359L900 451L870 451C840 451 780 451 720 451C660 451 600 451 540 451C480 451 420 451 360 451C300 451 240 451 180 451C120 451 60 451 30 451L0 451Z" fill="#272e44"></path><path d="M0 405L30 403.5C60 402 120 399 180 400.8C240 402.7 300 409.3 360 410.8C420 412.3 480 408.7 540 404.5C600 400.3 660 395.7 720 393.5C780 391.3 840 391.7 870 391.8L900 392L900 451L870 451C840 451 780 451 720 451C660 451 600 451 540 451C480 451 420 451 360 451C300 451 240 451 180 451C120 451 60 451 30 451L0 451Z" fill="#202731"></path></svg>