<svg id="visual" viewBox="0 0 900 450" width="900" height="450" xmlns="http://www.w3.org/2000/svg" xmlns:xlink="http://www.w3.org/1999/xlink" version="1.1"><rect x="0" y="0" width="900" height="450" fill="#202731"></rect><path d="M0 165L30 147C60 129 120 93 180 96.3C240 99.7 300 142.3 360 143.2C420 144 480 103 540 97.8C600 92.7 660 123.3 720 125C780 126.7 840 99.3 870 85.7L900 72L900 451L870 451C840 451 780 451 720 451C660 451 600 451 540 451C480 451 420 451 360 451C300 451 240 451 180 451C120 451 60 451 30 451L0 451Z" fill="#fa7268"></path><path d="M0 141L30 156.3C60 171.7 120 202.3 180 216.7C240 231 300 229 360 222.5C420 216 480 205 540 185.5C600 166 660 138 720 141.5C780 145 840 180 870 197.5L900 215L900 451L870 451C840 451 780 451 720 451C660 451 600 451 540 451C480 451 420 451 360 451C300 451 240 451 180 451C120 451 60 451 30 451L0 451Z" fill="#fc6765"></path><path d="M0 182L30 177C60 172 120 162 180 171C240 180 300 208 360 219.3C420 230.7 480 225.3 540 213.2C600 201 660 182 720 171.2C780 160.3 840 157.7 870 156.3L900 155L900 451L870 451C840 451 780 451 720 451C660 451 600 451 540 451C480 451 420 451 360 451C300 451 240 451 180 451C120 451 60 451 30 451L0 451Z" fill="#fd5b64"></path><path d="M0 262L30 269.3C60 276.7 120 291.3 180 284.5C240 277.7 300 249.3 360 232.7C420 216 480 211 540 210.3C600 209.7 660 213.3 720 230.3C780 247.3 840 277.7 870 292.8L900 308L900 451L870 451C840 451 780 451 720 451C660 451 600 451 540 451C480 451 420 451 360 451C300 451 240 451 180 451C120 451 60 451 30 451L0 451Z" fill="#fe4e63"></path><path d="M0 344L30 329.7C60 315.3 120 286.7 180 282.8C240 279 300 300 360 309.7C420 319.3 480 317.7 540 307.3C600 297 660 278 720 279C780 280 840 301 870 311.5L900 322L900 451L870 451C840 451 780 451 720 451C660 451 600 451 540 451C480 451 420 451 360 451C300 451 240 451 180 451C120 451 60 451 30 451L0 451Z" fill="#ff3f63"></path><path d="M0 329L30 334.3C60 339.7 120 350.3 180 359.8C240 369.3 300 377.7 360 371.2C420 364.7 480 343.3 540 336.2C600 329 660 336 720 345.3C780 354.7 840 366.3 870 372.2L900 378L900 451L870 451C840 451 780 451 720 451C660 451 600 451 540 451C480 451 420 451 360 451C300 451 240 451 180 451C120 451 60 451 30 451L0 451Z" fill="#ff2a64"></path><path d="M0 397L30 399C60 401 120 405 180 402.5C240 400 300 391 360 390.8C420 390.7 480 399.3 540 403C600 406.7 660 405.3 720 404.5C780 403.7 840 403.3 870 403.2L900 403L900 451L870 451C840 451 780 451 720 451C660 451 600 451 540 451C480 451 420 451 360 451C300 451 240 451 180 451C120 451 60 451 30 451L0 451Z" fill="#ff0066"></path></svg>