<?xml version="1.0" standalone="no"?>
<!DOCTYPE svg PUBLIC "-//W3C//DTD SVG 20010904//EN"
 "http://www.w3.org/TR/2001/REC-SVG-20010904/DTD/svg10.dtd">
<svg version="1.0" xmlns="http://www.w3.org/2000/svg"
 width="1280.000000pt" height="640.000000pt" viewBox="0 0 1280.000000 640.000000"
 preserveAspectRatio="xMidYMid meet">
<metadata>
Created by potrace 1.16, written by Peter Selinger 2001-2019
</metadata>
<g transform="translate(0.000000,640.000000) scale(0.100000,-0.100000)"
fill="#000000" stroke="none">
<path d="M0 5851 l0 -549 243 -47 c629 -122 1115 -246 1517 -390 178 -63 450
-176 881 -365 630 -278 910 -383 1234 -464 454 -114 906 -136 1325 -65 329 55
572 141 1195 419 405 181 556 243 730 303 349 119 624 167 965 167 455 0 869
-97 1355 -317 61 -28 290 -138 510 -245 711 -347 937 -423 1365 -459 202 -16
406 -6 743 36 37 5 34 2 -33 -25 -115 -47 -332 -116 -486 -155 -451 -113 -814
-119 -1338 -20 -44 8 -242 51 -440 95 -670 147 -825 169 -1282 177 -486 9
-901 -29 -1466 -132 -663 -122 -1127 -257 -2062 -599 -708 -260 -1068 -337
-1501 -323 -222 8 -326 21 -808 102 -542 91 -614 98 -932 100 l-270 1 -105 31
c-144 44 -395 105 -576 142 -127 26 -733 131 -756 131 -5 0 -8 -765 -8 -1700
l0 -1700 6400 0 6400 0 0 3200 0 3200 -6400 0 -6400 0 0 -549z"/>
</g>
</svg>
