<svg id="visual" viewBox="0 0 900 450" width="900" height="450" xmlns="http://www.w3.org/2000/svg" xmlns:xlink="http://www.w3.org/1999/xlink" version="1.1"><rect x="0" y="0" width="900" height="450" fill="#ff0066"></rect><path d="M0 373L21.5 368.8C43 364.7 86 356.3 128.8 340.5C171.7 324.7 214.3 301.3 257.2 288.2C300 275 343 272 385.8 283.8C428.7 295.7 471.3 322.3 514.2 334.5C557 346.7 600 344.3 642.8 328.5C685.7 312.7 728.3 283.3 771.2 273.7C814 264 857 274 878.5 279L900 284L900 0L878.5 0C857 0 814 0 771.2 0C728.3 0 685.7 0 642.8 0C600 0 557 0 514.2 0C471.3 0 428.7 0 385.8 0C343 0 300 0 257.2 0C214.3 0 171.7 0 128.8 0C86 0 43 0 21.5 0L0 0Z" fill="#fa7268"></path><path d="M0 193L21.5 199.5C43 206 86 219 128.8 217.8C171.7 216.7 214.3 201.3 257.2 203.3C300 205.3 343 224.7 385.8 239.7C428.7 254.7 471.3 265.3 514.2 271.8C557 278.3 600 280.7 642.8 274C685.7 267.3 728.3 251.7 771.2 253.5C814 255.3 857 274.7 878.5 284.3L900 294L900 0L878.5 0C857 0 814 0 771.2 0C728.3 0 685.7 0 642.8 0C600 0 557 0 514.2 0C471.3 0 428.7 0 385.8 0C343 0 300 0 257.2 0C214.3 0 171.7 0 128.8 0C86 0 43 0 21.5 0L0 0Z" fill="#c4587d"></path><path d="M0 239L21.5 235.5C43 232 86 225 128.8 208.2C171.7 191.3 214.3 164.7 257.2 164.7C300 164.7 343 191.3 385.8 200.8C428.7 210.3 471.3 202.7 514.2 190.8C557 179 600 163 642.8 165.2C685.7 167.3 728.3 187.7 771.2 191.8C814 196 857 184 878.5 178L900 172L900 0L878.5 0C857 0 814 0 771.2 0C728.3 0 685.7 0 642.8 0C600 0 557 0 514.2 0C471.3 0 428.7 0 385.8 0C343 0 300 0 257.2 0C214.3 0 171.7 0 128.8 0C86 0 43 0 21.5 0L0 0Z" fill="#804c7a"></path><path d="M0 96L21.5 107.3C43 118.7 86 141.3 128.8 145.5C171.7 149.7 214.3 135.3 257.2 122.2C300 109 343 97 385.8 91.7C428.7 86.3 471.3 87.7 514.2 93.3C557 99 600 109 642.8 111.7C685.7 114.3 728.3 109.7 771.2 119.2C814 128.7 857 152.3 878.5 164.2L900 176L900 0L878.5 0C857 0 814 0 771.2 0C728.3 0 685.7 0 642.8 0C600 0 557 0 514.2 0C471.3 0 428.7 0 385.8 0C343 0 300 0 257.2 0C214.3 0 171.7 0 128.8 0C86 0 43 0 21.5 0L0 0Z" fill="#423d5d"></path><path d="M0 67L21.5 70.5C43 74 86 81 128.8 77.7C171.7 74.3 214.3 60.7 257.2 55.7C300 50.7 343 54.3 385.8 62C428.7 69.7 471.3 81.3 514.2 80.3C557 79.3 600 65.7 642.8 56.8C685.7 48 728.3 44 771.2 51C814 58 857 76 878.5 85L900 94L900 0L878.5 0C857 0 814 0 771.2 0C728.3 0 685.7 0 642.8 0C600 0 557 0 514.2 0C471.3 0 428.7 0 385.8 0C343 0 300 0 257.2 0C214.3 0 171.7 0 128.8 0C86 0 43 0 21.5 0L0 0Z" fill="#202731"></path></svg>