<?xml version="1.0" standalone="no"?>
<!DOCTYPE svg PUBLIC "-//W3C//DTD SVG 20010904//EN"
 "http://www.w3.org/TR/2001/REC-SVG-20010904/DTD/svg10.dtd">
<svg version="1.0" xmlns="http://www.w3.org/2000/svg"
 width="260.000000pt" height="260.000000pt" viewBox="0 0 260.000000 260.000000"
 preserveAspectRatio="xMidYMid meet">
<metadata>
Created by potrace 1.14, written by Peter Selinger 2001-2017
</metadata>
<g transform="translate(0.000000,260.000000) scale(0.100000,-0.100000)"
fill="#000000" stroke="none">
<path d="M0 1300 l0 -1300 1300 0 1300 0 0 1300 0 1300 -1300 0 -1300 0 0
-1300z m1570 725 l0 -25 105 0 105 0 0 -25 0 -25 -130 0 -130 0 0 30 c0 25 -4
30 -25 30 -18 0 -25 5 -25 20 0 17 7 20 50 20 47 0 50 -2 50 -25z m320 -105
c0 -27 3 -30 30 -30 25 0 30 -4 30 -25 0 -20 5 -25 25 -25 24 0 25 -3 25 -55
0 -52 1 -55 25 -55 20 0 25 -5 25 -25 0 -21 5 -25 30 -25 27 0 30 -3 30 -30 0
-25 4 -30 25 -30 24 0 25 -2 25 -75 0 -68 -2 -75 -20 -75 -17 0 -20 7 -20 50
0 49 -1 50 -30 50 -27 0 -30 3 -30 30 0 25 -4 30 -25 30 -20 0 -25 5 -25 25 0
21 -5 25 -30 25 -30 0 -30 1 -30 55 0 52 -2 55 -24 55 -19 0 -25 6 -28 28 -2
19 -9 28 -25 30 -17 3 -23 10 -23 28 0 20 -5 24 -30 24 -25 0 -30 4 -30 25 0
23 3 25 50 25 49 0 50 -1 50 -30z m-642 -432 c3 -22 9 -28 28 -28 19 0 24 -5
24 -25 0 -20 5 -25 24 -25 19 0 25 -6 28 -27 2 -22 9 -29 31 -31 21 -3 27 -9
27 -28 0 -19 5 -24 25 -24 20 0 25 -5 25 -25 0 -24 3 -25 55 -25 l55 0 0 -85
c0 -84 0 -85 -25 -85 -20 0 -25 -5 -25 -25 0 -24 -3 -25 -55 -25 -52 0 -55 -1
-55 -25 0 -24 -3 -25 -55 -25 -54 0 -55 0 -55 -30 0 -25 -4 -30 -25 -30 -20 0
-25 -5 -25 -25 0 -25 -1 -25 -85 -25 -84 0 -85 0 -85 25 0 20 -5 25 -25 25
-21 0 -25 5 -25 30 0 25 -4 30 -24 30 -18 0 -25 6 -28 23 -2 16 -11 23 -30 25
-22 3 -28 9 -28 28 0 19 -5 24 -25 24 -24 0 -25 3 -25 55 0 55 0 55 -31 55
-27 0 -30 3 -27 28 2 21 9 28 31 30 21 3 27 9 27 28 0 19 5 24 25 24 20 0 25
5 25 24 0 19 6 25 28 28 25 3 27 7 30 56 l3 52 50 0 c45 0 49 2 49 23 0 13 3
27 7 31 4 4 41 5 83 4 74 -3 75 -4 78 -30z m972 -78 c0 -47 -2 -50 -25 -50
-23 0 -25 3 -25 50 0 47 2 50 25 50 23 0 25 -3 25 -50z m-1900 -490 c0 -49 1
-50 30 -50 27 0 30 -3 30 -30 0 -25 4 -30 25 -30 20 0 25 -5 25 -24 0 -19 6
-25 28 -28 21 -2 28 -9 30 -30 3 -22 9 -28 28 -28 19 0 24 -5 24 -25 0 -20 5
-25 24 -25 19 0 25 -6 28 -27 3 -26 7 -28 56 -31 48 -3 52 -5 52 -28 0 -20 5
-24 30 -24 25 0 30 -4 30 -25 0 -25 1 -25 80 -25 l80 0 0 -30 0 -30 135 0 135
0 0 -25 0 -25 -160 0 -160 0 0 25 c0 24 -3 25 -55 25 -54 0 -55 0 -55 30 0 30
-1 30 -55 30 -52 0 -55 1 -55 24 0 23 -4 25 -52 28 -49 3 -53 5 -56 31 -3 21
-9 27 -28 27 -19 0 -24 5 -24 25 0 21 -5 25 -30 25 -27 0 -30 3 -30 30 0 25
-4 30 -25 30 -20 0 -25 5 -25 25 0 20 -5 25 -25 25 -20 0 -25 5 -25 25 0 21
-5 25 -30 25 -30 0 -30 1 -30 55 0 52 -1 55 -25 55 -20 0 -25 5 -25 25 0 23 3
25 50 25 l50 0 0 -50z"/>
<path d="M1080 1435 c0 -20 -5 -25 -25 -25 -24 0 -25 -3 -25 -55 0 -54 0 -55
-30 -55 -25 0 -30 -4 -30 -25 0 -20 -5 -25 -25 -25 -24 0 -25 -3 -25 -55 0
-52 2 -55 24 -55 19 0 25 -6 28 -27 2 -22 9 -29 31 -31 21 -3 27 -9 27 -28 0
-19 5 -24 24 -24 19 0 25 -6 28 -27 2 -22 9 -29 31 -31 21 -3 27 -9 27 -28 0
-19 5 -24 25 -24 20 0 25 5 25 24 0 19 6 25 28 28 21 2 28 9 30 31 3 25 6 27
53 27 46 0 49 2 49 25 0 24 3 25 55 25 54 0 55 0 55 30 0 27 3 30 30 30 25 0
30 4 30 25 0 21 -5 25 -30 25 -27 0 -30 3 -30 30 0 30 -1 30 -55 30 -52 0 -55
1 -55 25 0 20 -5 25 -25 25 -20 0 -25 5 -25 25 0 20 -5 25 -24 25 -19 0 -25 6
-28 28 -2 21 -9 28 -30 30 -22 3 -28 9 -28 28 0 22 -3 24 -55 24 -52 0 -55 -1
-55 -25z"/>
</g>
</svg>
